<?xml version="1.0" encoding="utf-8"?>
<svg viewBox="0 0 145.2097 145.2098" xmlns="http://www.w3.org/2000/svg">
  <g transform="matrix(1, 0, 0, 1.0000000000000002, -7.105427357601002e-15, 0)">
    <path style="fill:#3f9fff;fill-opacity:1;fill-rule:evenodd;stroke:none" d="M 50.898 145.21 C 51.198 144.312 51.497 143.713 52.395 143.114 L 70.659 124.85 C 73.054 122.156 78.443 117.665 82.036 114.97 C 60.479 122.755 34.431 122.156 11.976 99.701 C 7.186 94.91 3.293 89.82 0 84.731 L 0 145.21 L 50.898 145.21 Z M 19.76 20.06 C 0.599 39.222 2.395 65.868 24.251 88.024 C 43.114 106.587 60.778 108.084 80.539 102.395 C 86.826 100 91.018 101.797 95.21 105.988 C 99.701 110.479 100.299 115.569 96.707 119.162 L 70.659 145.21 L 145.21 145.21 L 145.21 70.659 L 119.162 96.707 C 115.269 100.599 110.18 99.701 105.988 95.509 C 101.796 91.317 100 87.425 102.096 80.24 C 107.784 60.479 105.689 42.515 87.725 24.551 C 75.449 12.276 61.677 5.988 48.503 6.587 C 38.024 7.186 28.144 11.677 19.76 20.06 Z M 84.431 0 C 89.521 3.294 94.611 7.485 99.701 12.276 C 121.856 34.431 122.455 60.479 114.671 82.335 C 117.365 78.443 122.156 73.353 124.551 70.958 L 142.814 52.395 C 143.413 51.797 144.311 51.198 145.21 50.898 L 145.21 0 L 84.431 0 Z" id="path1194"/>
  </g>
</svg>